<?xml version="1.0" encoding="utf-8"?>
<!-- Generator: Adobe Illustrator 26.0.0, SVG Export Plug-In . SVG Version: 6.00 Build 0)  -->
<svg version="1.1" id="Layer_1" xmlns="http://www.w3.org/2000/svg" xmlns:xlink="http://www.w3.org/1999/xlink" x="0px" y="0px"
	 viewBox="0 0 1025 1024" style="enable-background:new 0 0 1025 1024;" xml:space="preserve">
<style type="text/css">
	.st0{fill:#FFFFFF;}
</style>
<path class="st0" d="M513,73.1c10.4,0,20.7,2.3,30.2,6.6l404.5,192.5c1.5,0.5,2.9,1.2,4.2,2c-1.1,0.8-2.2,1.5-3.5,2L543.2,468.8
	c-19.2,8.7-41.2,8.7-60.3,0L78.4,276.3c-1.5-0.5-2.9-1.2-4.2-2c1.1-0.8,2.2-1.5,3.5-2L482.8,79.7C492.3,75.4,502.6,73.2,513,73.1
	 M513,0c-21.3-0.1-42.4,4.6-61.6,13.7L46.9,206.1C9.2,220.7-9.5,263,5.1,300.7c7.4,19.2,22.6,34.4,41.8,41.8l404.5,192.4
	c39,18.3,84.2,18.3,123.2,0l404.5-192.4c37.7-14.6,56.4-57,41.8-94.6c-7.4-19.2-22.6-34.4-41.8-41.8L574.6,13.7
	C555.4,4.6,534.3-0.1,513,0z"/>
<path class="st0" d="M513,773.5c-27.5,0.1-54.6-6.1-79.2-18.3l-412.5-205c-18.4-8.4-26.4-30.1-18-48.5s30.1-26.4,48.5-18
	c0.7,0.3,1.4,0.6,2,1l412.5,204.8c29.4,14.5,63.9,14.5,93.3,0l412.5-204.8c18.4-8.4,40.1-0.4,48.5,18c8.1,17.6,1.1,38.4-15.9,47.5
	L592.2,755C567.6,767.2,540.5,773.6,513,773.5z"/>
<path class="st0" d="M513,1024c-27.4,0.1-54.5-6.2-79.2-18.3l-412.5-205c-18.4-8.4-26.4-30.1-18-48.5c8.4-18.4,30.1-26.4,48.5-18
	c0.7,0.3,1.4,0.6,2,1l412.5,204.8c29.4,14.5,63.9,14.5,93.3,0l412.5-204.8c18.4-8.4,40.1-0.4,48.5,18c8.1,17.6,1.1,38.4-15.9,47.5
	l-412.5,205C567.5,1017.8,540.5,1024.1,513,1024z"/>
</svg>
