<?xml version="1.0" encoding="utf-8"?>
<!-- Generator: Adobe Illustrator 26.0.0, SVG Export Plug-In . SVG Version: 6.00 Build 0)  -->
<svg version="1.1" id="Layer_1" xmlns="http://www.w3.org/2000/svg" xmlns:xlink="http://www.w3.org/1999/xlink" x="0px" y="0px"
	 viewBox="0 0 64 80" style="enable-background:new 0 0 64 80;" xml:space="preserve">
<style type="text/css">
	.st0{fill:#FFFFFF;}
</style>
<g>
	<path class="st0" d="M54,31c1.3,0,2.4-0.8,2.8-2H61c0.6,0,1-0.4,1-1s-0.4-1-1-1h-4.2c-0.4-1.2-1.6-2-2.8-2h-2v-2h2
		c1.3,0,2.4-0.8,2.8-2H61c0.6,0,1-0.4,1-1s-0.4-1-1-1h-4.2c-0.4-1.2-1.6-2-2.8-2h-2.3c-0.7-2-2.5-3.5-4.7-3.9V11
		c0-1.3-0.8-2.4-2-2.8V4c0-0.6-0.4-1-1-1s-1,0.4-1,1v4.2c-1.2,0.4-2,1.6-2,2.8v2h-2v-2c0-1.3-0.8-2.4-2-2.8V4c0-0.6-0.4-1-1-1
		s-1,0.4-1,1v4.2c-1.2,0.4-2,1.6-2,2.8v2h-2v-2c0-1.3-0.8-2.4-2-2.8V4c0-0.6-0.4-1-1-1s-1,0.4-1,1v4.2c-1.2,0.4-2,1.6-2,2.8v2h-2v-2
		c0-1.3-0.8-2.4-2-2.8V4c0-0.6-0.4-1-1-1s-1,0.4-1,1v4.2c-1.2,0.4-2,1.6-2,2.8v2.1c-2.1,0.4-3.9,1.9-4.6,3.9H10
		c-1.3,0-2.4,0.8-2.8,2H3c-0.6,0-1,0.4-1,1s0.4,1,1,1h4.2c0.4,1.2,1.6,2,2.8,2h2v2h-2c-1.3,0-2.4,0.8-2.8,2H3c-0.6,0-1,0.4-1,1
		s0.4,1,1,1h4.2c0.4,1.2,1.6,2,2.8,2h2v2h-2c-1.3,0-2.4,0.8-2.8,2H3c-0.6,0-1,0.4-1,1s0.4,1,1,1h4.2c0.4,1.2,1.6,2,2.8,2h2v2h-2
		c-1.3,0-2.4,0.8-2.8,2H3c-0.6,0-1,0.4-1,1s0.4,1,1,1h4.2c0.4,1.2,1.6,2,2.8,2h2.4c0.7,2,2.5,3.5,4.6,3.9V53c0,1.3,0.8,2.4,2,2.8V60
		c0,0.6,0.4,1,1,1s1-0.4,1-1v-4.2c1.2-0.4,2-1.6,2-2.8v-2h2v2c0,1.3,0.8,2.4,2,2.8V60c0,0.6,0.4,1,1,1s1-0.4,1-1v-4.2
		c1.2-0.4,2-1.6,2-2.8v-2h2v2c0,1.3,0.8,2.4,2,2.8V60c0,0.6,0.4,1,1,1s1-0.4,1-1v-4.2c1.2-0.4,2-1.6,2-2.8v-2h2v2
		c0,1.3,0.8,2.4,2,2.8V60c0,0.6,0.4,1,1,1s1-0.4,1-1v-4.2c1.2-0.4,2-1.6,2-2.8v-2.1c2.1-0.4,3.9-1.9,4.7-3.9H54c1.3,0,2.4-0.8,2.8-2
		H61c0.6,0,1-0.4,1-1s-0.4-1-1-1h-4.2c-0.4-1.2-1.6-2-2.8-2h-2v-2h2c1.3,0,2.4-0.8,2.8-2H61c0.6,0,1-0.4,1-1s-0.4-1-1-1h-4.2
		c-0.4-1.2-1.6-2-2.8-2h-2v-2H54z M54,27c0.6,0,1,0.4,1,1s-0.4,1-1,1h-2v-2H54z M54,19c0.6,0,1,0.4,1,1s-0.4,1-1,1h-2v-2H54z M43,11
		c0-0.6,0.4-1,1-1s1,0.4,1,1v2h-2V11z M35,11c0-0.6,0.4-1,1-1s1,0.4,1,1v2h-2V11z M27,11c0-0.6,0.4-1,1-1s1,0.4,1,1v2h-2V11z M19,11
		c0-0.6,0.4-1,1-1s1,0.4,1,1v2h-2V11z M10,21c-0.6,0-1-0.4-1-1s0.4-1,1-1h2v2H10z M10,29c-0.6,0-1-0.4-1-1s0.4-1,1-1h2v2H10z M10,37
		c-0.6,0-1-0.4-1-1s0.4-1,1-1h2v2H10z M10,45c-0.6,0-1-0.4-1-1s0.4-1,1-1h2v2H10z M21,53c0,0.6-0.4,1-1,1s-1-0.4-1-1v-2h2V53z
		 M29,53c0,0.6-0.4,1-1,1s-1-0.4-1-1v-2h2V53z M37,53c0,0.6-0.4,1-1,1s-1-0.4-1-1v-2h2V53z M45,53c0,0.6-0.4,1-1,1s-1-0.4-1-1v-2h2
		V53z M46,49H18c-2.2,0-4-1.8-4-4V19c0-2.2,1.8-4,4-4h28c2.2,0,4,1.8,4,4v26C50,47.2,48.2,49,46,49z M54,43c0.6,0,1,0.4,1,1
		s-0.4,1-1,1h-2v-2H54z M54,35c0.6,0,1,0.4,1,1s-0.4,1-1,1h-2v-2H54z"/>
	<path class="st0" d="M44,28c-0.6,0-1,0.4-1,1v1c0,0.6,0.4,1,1,1s1-0.4,1-1v-1C45,28.4,44.6,28,44,28z"/>
	<path class="st0" d="M42,19H22c-1.7,0-3,1.3-3,3v20c0,1.7,1.3,3,3,3h20c1.7,0,3-1.3,3-3v-8c0-0.6-0.4-1-1-1s-1,0.4-1,1v8
		c0,0.6-0.4,1-1,1H22c-0.6,0-1-0.4-1-1V22c0-0.6,0.4-1,1-1h20c0.6,0,1,0.4,1,1v3c0,0.6,0.4,1,1,1s1-0.4,1-1v-3
		C45,20.3,43.7,19,42,19z"/>
</g>
</svg>
