<?xml version="1.0" encoding="utf-8"?>
<!-- Generator: Adobe Illustrator 26.0.0, SVG Export Plug-In . SVG Version: 6.00 Build 0)  -->
<svg version="1.1" id="Capa_1" xmlns="http://www.w3.org/2000/svg" xmlns:xlink="http://www.w3.org/1999/xlink" x="0px" y="0px"
	 viewBox="0 0 800 800" style="enable-background:new 0 0 800 800;" xml:space="preserve">
<style type="text/css">
	.st0{fill:#FFFFFF;stroke:#FFFFFF;stroke-miterlimit:10;}
</style>
<g>
	<path class="st0" d="M751.6,269.8H599.7v-23.5h151.9V269.8z M751.6,285.1H599.7v23.5h151.9V285.1z M751.5,178.7H599.9v51.7h151.6
		V178.7z M800,123.1v553.8c0,8.3-6.8,15.1-15.1,15.1H566.5c-8.3,0-15.1-6.8-15.1-15.1V123.1c0-8.3,6.7-15.1,15.1-15.1h218.4
		C793.2,108,800,114.8,800,123.1z M769.8,138.2H581.5v523.7h188.3V138.2z M751.6,323.8H599.7v23.4h151.9V323.8z M726.9,498.6
		c0,27-21.8,48.8-48.7,48.8c-27,0-48.8-21.8-48.8-48.8c0-26.9,21.8-48.8,48.8-48.8C705,449.8,726.9,471.7,726.9,498.6z M709.3,498.6
		c0-17.2-13.9-31.2-31.2-31.2c-17.2,0-31.2,14-31.2,31.2c0,17.2,13.9,31.1,31.2,31.1C695.3,529.7,709.3,515.8,709.3,498.6z
		 M509.9,214.3v313.9c0,18.9-15.2,34.2-34,34.2H306.4c0,0-9.6,68.5,51.4,68.5v34.3h-51.4H203.6h-51.4V631
		c58.8,0,51.4-68.5,51.4-68.5H34.1C15.2,562.4,0,547.1,0,528.2v-314c0-18.9,15.2-34.2,34.1-34.2h441.9
		C494.7,180.1,509.9,195.3,509.9,214.3z M286.6,520.5c0-16.2-13.2-29.4-29.4-29.4c-16.2,0-29.4,13.1-29.4,29.4
		c0,16.2,13.2,29.4,29.4,29.4C273.5,549.9,286.6,536.7,286.6,520.5z M473.5,216.4H36.4v264.7h437h0V216.4z M257.6,502.1
		c-10.1,0-18.2,8.2-18.2,18.2s8.2,18.2,18.2,18.2c10.1,0,18.2-8.2,18.2-18.2S267.7,502.1,257.6,502.1z"/>
</g>
</svg>
