<?xml version="1.0" encoding="utf-8"?>
<!-- Generator: Adobe Illustrator 26.0.0, SVG Export Plug-In . SVG Version: 6.00 Build 0)  -->
<svg version="1.1" id="Layer_1" xmlns="http://www.w3.org/2000/svg" xmlns:xlink="http://www.w3.org/1999/xlink" x="0px" y="0px"
	 viewBox="0 0 115.3 122.9" style="enable-background:new 0 0 115.3 122.9;" xml:space="preserve">
<style type="text/css">
	.st0{fill:#FFFFFF;}
</style>
<g>
	<path class="st0" d="M25.3,86.9c-1.8,0-3.3-1.5-3.3-3.3s1.5-3.3,3.3-3.3h21.5c1.8,0,3.3,1.5,3.3,3.3s-1.5,3.3-3.3,3.3H25.3
		L25.3,86.9L25.3,86.9z M61.1,77.5c-1,0-1.8-0.8-1.8-1.8c0-1,0.8-1.8,1.8-1.8h4.7c0,0,0.1,0,0.2,0c1.6,0,3.1,0.4,4.3,1.1
		c1.4,0.9,2.4,2.2,2.9,4.2c0,0,0,0.1,0.1,0.1l0.5,1.8h39.9c1,0,1.8,0.8,1.8,1.8c0,0.2-0.1,0.4-0.1,0.6l-4.7,18.7
		c-0.2,0.8-0.9,1.4-1.7,1.4l0,0H79.7c0.6,2.4,1.3,3.7,2.1,4.2c1.1,0.7,2.9,0.7,5.9,0.7h0l0,0h20.6c1,0,1.8,0.8,1.8,1.8
		c0,1-0.8,1.8-1.8,1.8H87.8l0,0c-3.8,0-6.1-0.1-8-1.3c-1.9-1.3-2.9-3.5-3.9-7.4l0,0l-6.1-23.1c0-0.1,0-0.1,0-0.1
		c-0.3-1-0.7-1.7-1.4-2.1c-0.6-0.4-1.5-0.6-2.5-0.6c-0.1,0-0.1,0-0.1,0H61.1L61.1,77.5L61.1,77.5z M103.1,114.1c2.4,0,4.4,2,4.4,4.4
		s-2,4.4-4.4,4.4s-4.4-2-4.4-4.4S100.7,114.1,103.1,114.1L103.1,114.1L103.1,114.1z M83.9,114.1c2.4,0,4.4,2,4.4,4.4s-2,4.4-4.4,4.4
		s-4.4-2-4.4-4.4S81.5,114.1,83.9,114.1L83.9,114.1L83.9,114.1z M25.3,33.6c-1.8,0-3.3-1.5-3.3-3.3c0-1.8,1.5-3.3,3.3-3.3h50.5
		c1.8,0,3.3,1.5,3.3,3.3s-1.5,3.3-3.3,3.3H25.3L25.3,33.6L25.3,33.6z M7.6,0h85.6c2.1,0,4,0.9,5.3,2.2s2.2,3.3,2.2,5.3v60h-6.5V7.6
		c0-0.3-0.1-0.6-0.3-0.8c-0.2-0.2-0.5-0.3-0.8-0.3l0,0H7.6C7.3,6.5,7,6.6,6.8,6.8S6.5,7.3,6.5,7.6v98.7c0,0.3,0.1,0.6,0.3,0.8
		s0.5,0.3,0.8,0.3h55c0.6,2.4,1.3,4.5,2.2,6.5H7.6c-2.1,0-4-0.8-5.3-2.2c-1.4-1.3-2.2-3.2-2.2-5.3V7.6c0-2.1,0.9-4,2.2-5.4
		S5.5,0,7.6,0L7.6,0L7.6,0z M25.3,60.2c-1.8,0-3.3-1.5-3.3-3.3s1.5-3.3,3.3-3.3h50.5c1.8,0,3.3,1.5,3.3,3.3s-1.5,3.3-3.3,3.3H25.3
		L25.3,60.2L25.3,60.2z"/>
</g>
</svg>
